<svg width="24" height="24" viewBox="0 0 24 24" fill="none" xmlns="http://www.w3.org/2000/svg">
<path d="M4 19V10C4 9.68333 4.071 9.38333 4.213 9.1C4.355 8.81667 4.55067 8.58333 4.8 8.4L10.8 3.9C11.15 3.63333 11.55 3.5 12 3.5C12.45 3.5 12.85 3.63333 13.2 3.9L19.2 8.4C19.45 8.58333 19.646 8.81667 19.788 9.1C19.93 9.38333 20.0007 9.68333 20 10V19C20 19.55 19.804 20.021 19.412 20.413C19.02 20.805 18.5493 21.0007 18 21H15C14.7167 21 14.479 20.904 14.287 20.712C14.095 20.52 13.9993 20.2827 14 20V15C14 14.7167 13.904 14.479 13.712 14.287C13.52 14.095 13.2827 13.9993 13 14H11C10.7167 14 10.479 14.096 10.287 14.288C10.095 14.48 9.99934 14.7173 10 15V20C10 20.2833 9.904 20.521 9.712 20.713C9.52 20.905 9.28267 21.0007 9 21H6C5.45 21 4.979 20.804 4.587 20.412C4.195 20.02 3.99934 19.5493 4 19Z" fill="black"/>
</svg>
