<svg width="290" height="290" viewBox="0 0 290 290" fill="none" xmlns="http://www.w3.org/2000/svg">
<path d="M145 250.85C203.459 250.85 250.85 203.459 250.85 145C250.85 86.5407 203.459 39.15 145 39.15C86.5406 39.15 39.15 86.5407 39.15 145C39.15 203.459 86.5406 250.85 145 250.85Z" fill="#DCDCDC"/>
<path d="M27.2716 176.346C27.2716 176.346 76.8674 144.353 130.445 153.451C177.866 161.504 184.765 155.446 207.327 145.655C222.534 139.058 226.815 155.101 224.936 160.266" stroke="#231F20" stroke-miterlimit="10" stroke-linecap="round" stroke-linejoin="round"/>
<path d="M234.726 183.303C246.596 167.431 229.306 156.82 220.96 161.698C220.96 161.698 192.917 176.285 173.812 178.301" stroke="#231F20" stroke-miterlimit="10" stroke-linecap="round" stroke-linejoin="round"/>
<path d="M177.657 199.366C177.657 199.366 200.19 196.489 217.848 185.266C235.019 174.354 251.468 193.16 232.728 206.845C215.545 219.394 194.404 229.251 136.407 237.539C82.3252 245.267 71.8533 252.552 63.7449 258.091" stroke="#231F20" stroke-miterlimit="10" stroke-linecap="round" stroke-linejoin="round"/>
<path d="M89.1692 173.893C89.1692 173.893 100.992 172.44 116.052 184.136C126.15 190.881 133.174 189.031 140.467 185.446C153.975 178.805 169.241 196.785 147.993 211.543C126.744 226.304 94.9779 229.512 94.9779 229.512" stroke="#231F20" stroke-miterlimit="10" stroke-linecap="round" stroke-linejoin="round"/>
<path d="M74.7214 73.5179L143.306 20.0245L213.921 73.5179" stroke="#231F20" stroke-miterlimit="10" stroke-linecap="round" stroke-linejoin="round"/>
<path d="M200.245 64.1711V132.475H88.3978V64.1711" stroke="#231F20" stroke-miterlimit="10" stroke-linecap="round" stroke-linejoin="round"/>
<path d="M133.493 66.7928H111.003V97.0572H133.493V66.7928Z" stroke="#231F20" stroke-miterlimit="10" stroke-linecap="round" stroke-linejoin="round"/>
<path d="M181.65 88.45H156.939V132.043H181.65V88.45Z" stroke="#231F20" stroke-miterlimit="10" stroke-linecap="round" stroke-linejoin="round"/>
<path d="M111.003 76.9283H133.493" stroke="#231F20" stroke-miterlimit="10" stroke-linecap="round" stroke-linejoin="round"/>
</svg>
